<?xml version="1.0" encoding="UTF-8"?>
<svg id="Layer_1" data-name="Layer 1" xmlns="http://www.w3.org/2000/svg" viewBox="0 0 132 132">
  <defs>
    <style>
      .cls-1 {
        fill: #fff;
      }
    </style>
  </defs>
  <path d="M66.02,10.81c-23.04,0-29.78.02-31.09.13-4.73.39-7.67,1.14-10.88,2.73-2.47,1.23-4.42,2.65-6.34,4.64-3.5,3.64-5.62,8.11-6.39,13.43-.37,2.58-.48,3.11-.5,16.29,0,4.4,0,10.18,0,17.94,0,23.03.03,29.76.14,31.07.38,4.6,1.1,7.5,2.63,10.66,2.92,6.06,8.5,10.61,15.07,12.31,2.28.59,4.79.91,8.01,1.06,1.37.06,15.3.1,29.24.1s27.88-.02,29.21-.08c4.1-.19,6.31-.53,9.02-1.28,5.8-1.62,10.75-5.49,13.64-10.77,1.98-3.61,2.92-6.83,3.31-11.83.07-.95.11-16.11.11-31.26s-.03-30.28-.11-31.23c-.35-4.43-1.11-7.41-2.65-10.56-1.27-2.58-2.68-4.5-4.72-6.47-3.65-3.49-8.12-5.61-13.44-6.38-2.58-.37-3.09-.48-16.28-.51h-17.96Z"/>
  <path class="cls-1" d="M66.01,0C48.08,0,45.83.08,38.79.4c-7.03.32-11.82,1.43-16.02,3.07-4.34,1.69-8.02,3.94-11.69,7.61-3.67,3.67-5.93,7.35-7.62,11.69C1.83,26.96.71,31.76.4,38.78.08,45.82,0,48.08,0,66s.08,20.17.4,27.21c.32,7.03,1.44,11.82,3.07,16.02,1.69,4.34,3.94,8.02,7.61,11.69,3.67,3.67,7.35,5.93,11.69,7.62,4.2,1.63,9,2.74,16.02,3.07,7.04.32,9.29.4,27.21.4s20.17-.08,27.21-.4c7.03-.32,11.83-1.43,16.03-3.07,4.34-1.69,8.02-3.95,11.68-7.62,3.67-3.67,5.93-7.35,7.62-11.69,1.62-4.2,2.74-9,3.07-16.02.32-7.04.4-9.28.4-27.21s-.08-20.17-.4-27.21c-.33-7.03-1.44-11.82-3.07-16.02-1.69-4.34-3.95-8.02-7.62-11.69-3.67-3.67-7.34-5.93-11.69-7.61-4.21-1.63-9.01-2.74-16.03-3.07-7.04-.32-9.28-.4-27.21-.4h.02ZM60.08,11.89c1.76,0,3.72,0,5.92,0,17.62,0,19.71.06,26.67.38,6.44.29,9.93,1.37,12.25,2.27,3.08,1.2,5.28,2.63,7.58,4.94,2.31,2.31,3.74,4.51,4.94,7.59.9,2.32,1.98,5.82,2.27,12.25.32,6.96.39,9.05.39,26.66s-.07,19.7-.39,26.66c-.29,6.44-1.37,9.93-2.27,12.25-1.2,3.08-2.63,5.27-4.94,7.58-2.31,2.31-4.5,3.74-7.58,4.94-2.32.91-5.82,1.98-12.25,2.27-6.96.32-9.05.38-26.67.38s-19.71-.07-26.67-.38c-6.44-.3-9.93-1.37-12.26-2.28-3.08-1.2-5.28-2.63-7.59-4.94-2.31-2.31-3.74-4.5-4.94-7.59-.9-2.32-1.98-5.82-2.27-12.25-.32-6.96-.38-9.05-.38-26.67s.06-19.7.38-26.66c.29-6.44,1.37-9.93,2.27-12.25,1.2-3.08,2.63-5.28,4.94-7.59,2.31-2.31,4.51-3.74,7.59-4.94,2.33-.91,5.82-1.98,12.26-2.28,6.09-.28,8.45-.36,20.75-.37v.02ZM101.24,22.85c-4.37,0-7.92,3.54-7.92,7.92s3.55,7.92,7.92,7.92,7.92-3.55,7.92-7.92-3.55-7.92-7.92-7.92h0ZM66.01,32.11c-18.72,0-33.89,15.18-33.89,33.89s15.18,33.89,33.89,33.89c18.72,0,33.89-15.17,33.89-33.89s-15.17-33.89-33.89-33.89h0ZM66.01,44c12.15,0,22,9.85,22,22s-9.85,22-22,22-22-9.85-22-22,9.85-22,22-22Z"/>
</svg>