<?xml version="1.0" encoding="UTF-8"?>
<svg id="Layer_1" data-name="Layer 1" xmlns="http://www.w3.org/2000/svg" viewBox="0 0 250 250">
  <defs>
    <style>
      .cls-1 {
        fill: #ddd;
      }

      .cls-2 {
        fill: #999;
      }
    </style>
  </defs>
  <g>
    <path class="cls-2" d="M131.65,50v60c0,3.7,3,6.7,6.7,6.7h60c0-18.4-4.1-38.4-16.2-50.5-12.1-12.1-32.1-16.2-50.5-16.2Z"/>
    <path class="cls-2" d="M197.05,248.8c-28,4.6-61.9-3.7-94.4-23.1l10.9-24.3,24.7-11.4,38.7,22.1,20.1,36.7Z"/>
    <path class="cls-2" d="M2.85,54.6c-4.6,28,3.6,61.9,23.1,94.4l25-11.7,10.7-24-21-34.3L2.85,54.6Z"/>
  </g>
  <g>
    <path class="cls-1" d="M141.65,0c-5.5,0-10,4.5-10,10v40c36.8,0,66.7,29.9,66.7,66.7h40c5.5,0,10-4.5,10-10C248.35,47.8,200.55,0,141.65,0Z"/>
    <path class="cls-1" d="M238.85,225.8c5.3-5.1,5.5-13.4.5-18.7l-48.2-51.4c-5.3-5-13.5-4.9-18.6.2l-34.2,34.1,58.7,58.7c15.9-2.3,27.8-9.1,38.6-19.9l3.2-3Z"/>
    <path class="cls-1" d="M26.05,149c8.8,14.6,20.5,29.3,33.8,42.6,13.3,13.3,28.3,25.2,42.9,34l35.7-35.6L61.65,113.3"/>
    <path class="cls-1" d="M87.35,88.4h0l5.5-5.3c6.5-6.5,6.5-17.2,0-23.7L47.55,14.1c-6.5-6.5-17.2-6.5-23.7,0l-1.6,1.1C11.75,25.7,5.45,39.3,2.85,54.6l58.8,58.7,25.7-24.9Z"/>
  </g>
</svg>